<svg xmlns="http://www.w3.org/2000/svg" viewBox="0 0 1200 420" role="img" aria-label="Minimal city silhouette">
  <defs>
    <linearGradient id="sky" x1="0" y1="0" x2="0" y2="1">
      <stop offset="0" stop-color="#dfeaf9" />
      <stop offset="1" stop-color="#f4f8fe" />
    </linearGradient>
    <linearGradient id="ground" x1="0" y1="0" x2="1" y2="0">
      <stop offset="0" stop-color="#d7e2f0" />
      <stop offset="1" stop-color="#c9d8ea" />
    </linearGradient>
  </defs>

  <rect width="1200" height="420" fill="url(#sky)" />
  <rect y="328" width="1200" height="92" fill="url(#ground)" />

  <g fill="#b9c8db" opacity="0.8">
    <rect x="80" y="196" width="128" height="132" rx="5" />
    <rect x="232" y="155" width="98" height="173" rx="5" />
    <rect x="352" y="214" width="146" height="114" rx="5" />
    <rect x="526" y="140" width="104" height="188" rx="5" />
    <rect x="652" y="178" width="132" height="150" rx="5" />
    <rect x="808" y="130" width="118" height="198" rx="5" />
    <rect x="950" y="206" width="162" height="122" rx="5" />
  </g>

  <g fill="#8ea4c2" opacity="0.65">
    <rect x="110" y="224" width="8" height="12" />
    <rect x="126" y="224" width="8" height="12" />
    <rect x="142" y="224" width="8" height="12" />
    <rect x="258" y="184" width="8" height="12" />
    <rect x="274" y="184" width="8" height="12" />
    <rect x="290" y="184" width="8" height="12" />
    <rect x="552" y="170" width="8" height="12" />
    <rect x="568" y="170" width="8" height="12" />
    <rect x="834" y="160" width="8" height="12" />
    <rect x="850" y="160" width="8" height="12" />
    <rect x="866" y="160" width="8" height="12" />
  </g>
</svg>
